<svg width="74" height="75" viewBox="0 0 74 75" fill="none" xmlns="http://www.w3.org/2000/svg">
<path fill-rule="evenodd" clip-rule="evenodd" d="M64.6171 36.5714C67.3458 37.8573 69.1948 39.4428 70.2124 42.3746L73.6832 55.7285C65.4872 67.1367 52.0777 74.564 36.9836 74.564C21.8896 74.564 8.52603 67.1608 0.325195 55.7889L3.89267 42.3746C4.86188 39.583 6.5296 38.0095 9.12545 36.7503C11.1672 35.7617 13.3122 34.9552 15.4558 34.1492C17.2479 33.4753 19.0391 32.8019 20.7681 32.0227C19.6248 35.3122 18.9046 38.7636 18.6 42.2441C18.3003 45.6665 18.136 49.6812 18.2302 53.106C18.2368 53.3715 18.2885 53.6439 18.341 53.921C18.4229 54.353 18.507 54.7965 18.426 55.2427C16.6544 55.7599 14.6797 56.6711 14.1987 58.6506C12.7944 64.4514 21.0968 66.4454 23.2793 61.58C24.5507 58.7449 22.6678 56.091 19.8545 55.4312C19.893 53.9645 19.8937 52.4328 19.8945 50.8663C19.8974 44.6727 19.9006 37.933 22.2424 32.4988C23.4268 29.7531 25.8365 27.7615 28.3816 26.3089C28.4318 25.977 28.1663 25.7307 27.9078 25.491C27.7805 25.3728 27.6548 25.2563 27.5695 25.1318C26.5713 23.6768 25.5078 21.6635 24.9229 19.9981C24.7899 19.6187 24.1615 17.5111 24.1954 17.3056C24.2074 17.2298 24.3075 17.181 24.4213 17.1254C24.5362 17.0693 24.6652 17.0064 24.7319 16.902C25.0325 16.4323 24.9837 14.5523 24.9444 13.0329C24.9258 12.316 24.9093 11.6794 24.9325 11.3091C25.0437 9.53985 25.5054 6.8159 25.9549 5.09259C26.2979 3.77614 26.9489 2.70913 27.6146 1.61784C27.934 1.09423 28.2569 0.565028 28.5508 0C29.5275 1.49682 30.7094 1.23828 32.0089 0.954014C32.4426 0.859133 32.8894 0.761387 33.3461 0.725096C39.797 0.210278 48.4015 5.94095 48.9912 12.5756C49.0282 12.9974 48.9985 13.4999 48.9676 14.0207C48.8917 15.3024 48.8092 16.6947 49.6994 17.267C48.8607 20.5081 47.5555 23.6671 45.3754 26.2291C50.3568 28.4383 53.2161 33.1127 53.1605 38.5944C49.5326 40.2307 47.9205 44.0061 49.0033 47.8418C49.3179 48.9589 49.9442 49.9595 50.5748 50.9671C51.0971 51.8018 51.6225 52.6412 51.9762 53.5556C52.3661 54.5666 52.5972 55.6517 52.8291 56.7408C53.2371 58.6564 53.6478 60.5847 54.9298 62.1456C53.9726 63.4942 52.4789 63.4556 51.0191 63.0133C49.761 62.6338 49.6037 62.3375 49.2948 61.7557C49.1728 61.5261 49.0272 61.2519 48.781 60.9105C46.028 57.0989 43.1397 61.783 46.2359 62.9118C46.76 63.1021 47.235 63.1054 47.7009 63.1087C48.0277 63.111 48.35 63.1133 48.6819 63.18C48.937 63.2321 49.2841 63.4041 49.6424 63.5817C49.9663 63.7422 50.2993 63.9072 50.5816 63.9921C52.4789 64.5674 54.1998 64.5819 55.5944 63.0012C57.6561 64.5529 59.3964 63.8181 61.4218 62.8127C61.5801 62.7346 61.7154 62.6136 61.8502 62.493C62.0118 62.3484 62.1727 62.2044 62.3717 62.1359C62.7167 62.0174 63.0683 61.9645 63.4271 61.9106C63.9682 61.8293 64.5259 61.7455 65.1029 61.4301C67.7906 59.963 65.0086 56.3448 62.8502 58.9938C62.4893 59.438 62.2945 60.0121 62.1324 60.4897C62.0167 60.8308 61.9177 61.1226 61.7868 61.2827C61.649 61.4519 60.2085 62.2761 59.916 62.3921C58.693 62.8828 57.3347 63.0954 56.4356 61.9401C57.4281 60.1603 57.5235 58.204 57.6184 56.2589C57.6721 55.1584 57.7256 54.0615 57.9413 53.0021C58.1608 51.9249 58.5663 51.1658 58.9635 50.4222C59.2793 49.831 59.5899 49.2495 59.7976 48.5258C60.936 44.5596 59.4906 40.7552 55.8144 38.8603C55.6916 38.7977 55.5482 38.7698 55.4055 38.7421C55.1242 38.6874 54.8454 38.6332 54.7316 38.3141C54.7053 38.1208 54.6796 37.9273 54.6538 37.7337C54.395 35.7887 54.1347 33.8317 53.3346 32.0227C55.0636 32.8009 56.8541 33.4728 58.645 34.1449C60.6643 34.9027 62.6841 35.6607 64.6171 36.5714ZM36.8821 65.3941C36.9091 65.4984 36.9243 65.5571 37.2302 65.4907C37.7052 64.3192 38.2808 63.1669 38.8582 62.0113C39.8936 59.9387 40.9343 57.8555 41.4091 55.6318L38.9414 42.7831L40.8387 39.3703L36.9861 36.0155L33.2687 39.3824L35.067 42.9619L32.5557 55.8227C32.9776 56.7619 33.3871 57.7863 33.8059 58.8336C34.7018 61.0747 35.6397 63.4204 36.829 65.2587C36.8597 65.3075 36.8718 65.3541 36.8821 65.3941ZM36.9764 35.8197C37.9263 35.8802 44.1089 31.5272 44.1089 31.0269V27.6793C39.9058 31.3242 34.2549 31.5223 29.9961 27.8606V31.0269C29.9961 31.532 36.0531 35.7593 36.9764 35.8197ZM53.2841 40.2018C55.1936 39.7715 56.6945 40.9293 57.6444 42.4568C59.3887 45.2554 58.611 47.4524 57.7618 49.8513C57.3943 50.8896 57.0134 51.9657 56.8178 53.1447C56.6732 54.0195 56.6453 54.9342 56.6174 55.852C56.563 57.6349 56.5083 59.4295 55.5972 60.9661C54.5761 59.5297 54.2095 57.8311 53.8439 56.1376C53.6479 55.2295 53.4522 54.3229 53.156 53.4589C52.7932 52.3984 52.2831 51.4084 51.7843 50.4403C50.4755 47.9002 49.2444 45.5107 50.9542 42.394C51.3626 41.6471 52.4358 40.3927 53.2841 40.2018ZM16.7535 59.4675C18.3777 62.5661 23.973 59.9244 21.3119 56.6276C21.6358 56.3279 22.7283 57.9521 22.8491 58.2566C24.4202 62.1722 19.5524 65.1765 16.3378 62.7788C13.3649 60.56 14.9335 56.2795 18.4164 55.9049C17.1644 56.8016 15.852 57.7467 16.7535 59.4675Z" fill="white"/>
</svg>
