<svg width="21" height="21" viewBox="0 0 21 21" fill="none" xmlns="http://www.w3.org/2000/svg">
<path fill-rule="evenodd" clip-rule="evenodd" d="M18.1564 10.3094C18.8883 10.6543 19.3842 11.0796 19.6572 11.866L20.5881 15.4478C18.3897 18.5078 14.793 20.5 10.7444 20.5C6.69574 20.5 3.1113 18.5143 0.911621 15.464L1.86851 11.866C2.12848 11.1172 2.5758 10.6951 3.27208 10.3574C3.81972 10.0922 4.39507 9.87587 4.97003 9.65969C5.45073 9.47895 5.93116 9.29831 6.39493 9.0893C6.08828 9.97164 5.89509 10.8974 5.8134 11.831C5.73302 12.7489 5.68893 13.8258 5.71421 14.7444C5.71599 14.8156 5.72984 14.8887 5.74393 14.963C5.7659 15.0789 5.78845 15.1978 5.76673 15.3175C5.29152 15.4562 4.76186 15.7006 4.63285 16.2316C4.25619 17.7875 6.4831 18.3224 7.06851 17.0173C7.40951 16.2569 6.90449 15.5451 6.14987 15.3681C6.16021 14.9747 6.1604 14.5638 6.1606 14.1436C6.16139 12.4824 6.16224 10.6746 6.79039 9.21702C7.10806 8.48055 7.75441 7.94635 8.43707 7.55673C8.45053 7.46769 8.37933 7.40164 8.31 7.33734C8.27584 7.30565 8.24214 7.27439 8.21924 7.241C7.95149 6.85073 7.66624 6.3107 7.50935 5.86402C7.4737 5.76224 7.30514 5.19692 7.31421 5.14181C7.31744 5.12148 7.34428 5.10838 7.37483 5.09347C7.40565 5.07843 7.44023 5.06155 7.45814 5.03355C7.53874 4.90757 7.52568 4.40331 7.51512 3.99577C7.51014 3.80348 7.50571 3.63273 7.51195 3.53339C7.54177 3.05883 7.66559 2.3282 7.78618 1.86596C7.87818 1.51286 8.05277 1.22666 8.23135 0.933947C8.31703 0.793501 8.40362 0.651556 8.48245 0.5C8.74443 0.901486 9.06145 0.832137 9.40999 0.755891C9.52633 0.730442 9.64618 0.704224 9.76867 0.694489C11.499 0.556402 13.8069 2.09352 13.9651 3.8731C13.975 3.98624 13.967 4.12103 13.9588 4.26072C13.9384 4.60449 13.9163 4.97794 14.1551 5.13144C13.9301 6.00081 13.58 6.84814 12.9953 7.53533C14.3314 8.12788 15.0983 9.38168 15.0834 10.852C14.1103 11.2909 13.6779 12.3036 13.9683 13.3324C14.0527 13.632 14.2207 13.9004 14.3898 14.1707C14.53 14.3946 14.6709 14.6197 14.7658 14.865C14.8703 15.1362 14.9323 15.4272 14.9945 15.7193C15.104 16.2331 15.2141 16.7504 15.558 17.169C15.3012 17.5308 14.9006 17.5204 14.509 17.4018C14.1716 17.3 14.1294 17.2205 14.0465 17.0645C14.0138 17.0029 13.9748 16.9293 13.9087 16.8378C13.1703 15.8154 12.3956 17.0718 13.226 17.3746C13.3666 17.4256 13.494 17.4265 13.619 17.4274C13.7067 17.428 13.7931 17.4286 13.8821 17.4465C13.9506 17.4605 14.0437 17.5066 14.1398 17.5542C14.2266 17.5973 14.316 17.6416 14.3917 17.6643C14.9006 17.8186 15.3622 17.8225 15.7363 17.3985C16.2893 17.8147 16.756 17.6177 17.2993 17.348C17.3418 17.327 17.3781 17.2946 17.4142 17.2622C17.4576 17.2234 17.5007 17.1848 17.5541 17.1664C17.6466 17.1347 17.7409 17.1205 17.8372 17.106C17.9823 17.0842 18.1319 17.0617 18.2867 16.9771C19.0076 16.5836 18.2614 15.6131 17.6824 16.3237C17.5856 16.4428 17.5334 16.5968 17.4899 16.7249C17.4589 16.8164 17.4323 16.8947 17.3972 16.9376C17.3602 16.983 16.9739 17.2041 16.8954 17.2352C16.5674 17.3668 16.203 17.4238 15.9619 17.1139C16.2281 16.6365 16.2537 16.1118 16.2791 15.5901C16.2935 15.2949 16.3079 15.0007 16.3658 14.7165C16.4246 14.4276 16.5334 14.224 16.6399 14.0245C16.7246 13.8659 16.8079 13.71 16.8636 13.5159C17.169 12.452 16.7813 11.4316 15.7953 10.9233C15.7623 10.9065 15.7239 10.8991 15.6856 10.8916C15.6101 10.877 15.5354 10.8624 15.5048 10.7768C15.4978 10.725 15.4909 10.6731 15.484 10.6211C15.4145 10.0995 15.3447 9.57454 15.1301 9.0893C15.5939 9.29804 16.0741 9.47827 16.5545 9.65854C17.0961 9.8618 17.6379 10.0651 18.1564 10.3094ZM10.7171 18.0404C10.7244 18.0684 10.7285 18.0841 10.8105 18.0663C10.9379 17.7521 11.0923 17.443 11.2472 17.133C11.5249 16.5771 11.804 16.0183 11.9314 15.4219L11.2695 11.9755L11.7784 11.0601L10.745 10.1603L9.74793 11.0634L10.2303 12.0235L9.55668 15.4731C9.66983 15.725 9.77969 15.9998 9.892 16.2807C10.1323 16.8818 10.3839 17.511 10.7029 18.0041C10.7111 18.0172 10.7144 18.0297 10.7171 18.0404ZM10.7424 10.1078C10.9972 10.124 12.6555 8.9564 12.6555 8.8222V7.92431C11.5282 8.90194 10.0124 8.9551 8.87013 7.97293V8.8222C8.87013 8.9577 10.4948 10.0916 10.7424 10.1078ZM15.1164 11.2833C15.6286 11.1679 16.0312 11.4784 16.2859 11.8882C16.7538 12.6388 16.5452 13.2281 16.3174 13.8716L16.3174 13.8716C16.2189 14.1501 16.1167 14.4387 16.0642 14.7549C16.0254 14.9896 16.018 15.2349 16.0105 15.4811C15.9959 15.9593 15.9812 16.4407 15.7368 16.8528C15.463 16.4675 15.3646 16.0119 15.2666 15.5577C15.214 15.3141 15.1615 15.0709 15.082 14.8392C14.9847 14.5548 14.8479 14.2892 14.7141 14.0295C14.3631 13.3482 14.0329 12.7073 14.4914 11.8713C14.601 11.671 14.8889 11.3345 15.1164 11.2833ZM5.31705 16.4504C5.75271 17.2815 7.25352 16.5729 6.53974 15.6887C6.62661 15.6083 6.91964 16.0439 6.95206 16.1256C7.37345 17.1758 6.06778 17.9817 5.20554 17.3386C4.40814 16.7434 4.82888 15.5953 5.76308 15.4948C5.42726 15.7353 5.07523 15.9888 5.31705 16.4504Z" fill="#656D77"/>
</svg>
