<svg width="102" height="101" viewBox="0 0 102 101" fill="none" xmlns="http://www.w3.org/2000/svg">
<path d="M39.0175 100.224C40.1307 100.224 41.0331 99.3161 41.0331 98.1967C41.0331 97.0772 40.1307 96.1698 39.0175 96.1698C37.9044 96.1698 37.002 97.0772 37.002 98.1967C37.002 99.3161 37.9044 100.224 39.0175 100.224Z" fill="#D8A353"/>
<path d="M32.746 100.224C33.8592 100.224 34.7616 99.3161 34.7616 98.1967C34.7616 97.0772 33.8592 96.1698 32.746 96.1698C31.6329 96.1698 30.7305 97.0772 30.7305 98.1967C30.7305 99.3161 31.6329 100.224 32.746 100.224Z" fill="#D8A353"/>
<path d="M45.0825 57.7656C45.0825 52.1287 45.1099 52.4003 45.0126 52.0569C48.3933 49.2816 50.6755 45.2048 51.0989 40.5934C55.4867 39.5237 57.5819 36.2725 57.5819 32.8339V28.4848C57.5819 26.8131 56.3852 25.4191 54.8085 25.1184V13.2116C54.8085 6.00907 48.9816 0.149414 41.8192 0.149414H26.4945C19.3321 0.149414 13.5052 6.00907 13.5052 13.2116V25.0593C11.6513 25.0897 10.1519 26.6134 10.1519 28.4848V32.8339C10.1519 36.4719 12.6074 39.6115 16.1234 40.4687L17.3006 40.7557C17.9157 45.3514 20.3181 49.3825 23.7811 52.1193C23.6978 52.4592 23.7271 52.1935 23.7271 57.7339C10.9905 58.4133 0.835938 69.0471 0.835938 82.0215V95.0436C0.835938 97.7756 3.04616 99.9983 5.76289 99.9983H26.6796C27.6691 99.9983 28.4712 99.1917 28.4712 98.1966V81.9576C28.4712 79.0989 29.5622 76.3276 31.4646 74.3545L44.0361 61.3159C45.2502 61.3595 46.4378 61.5095 47.5901 61.7565V70.423C43.381 71.1813 40.1756 74.8876 40.1756 79.3352V83.5237C40.1756 85.4097 41.7014 86.9441 43.5769 86.9441H45.8868C46.8763 86.9441 47.6784 86.1375 47.6784 85.1424C47.6784 84.1473 46.8763 83.3407 45.8868 83.3407H43.7588V79.3352C43.7588 76.3281 46.1915 73.8818 49.1817 73.8818C52.9192 73.8818 55.0045 76.6361 55.0045 79.4075V83.3407H53.5172C52.5276 83.3407 51.7255 84.1473 51.7255 85.1424C51.7255 86.1375 52.5276 86.9441 53.5172 86.9441H55.5103C57.2072 86.9441 58.5877 85.5558 58.5877 83.8494V79.4075C58.5877 74.9453 55.3868 71.2232 51.1733 70.4348V62.8796C58.6342 65.9981 63.8945 73.4032 63.8945 82.0215V95.0436C63.8945 95.7887 63.2918 96.3949 62.5508 96.3949H45.3661C44.3766 96.3949 43.5745 97.2015 43.5745 98.1966C43.5745 99.1917 44.3766 99.9983 45.3661 99.9983H62.5508C65.2676 99.9983 67.4778 97.7756 67.4778 95.0436V82.0215C67.4778 69.1875 57.558 58.6884 45.0825 57.7656ZM53.9986 32.8339C53.9986 34.6592 52.8557 36.2508 51.1733 36.8436V28.6598H53.9986V32.8339ZM17.0885 13.2116C17.0885 7.99605 21.308 3.75279 26.4945 3.75279H41.8192C47.0057 3.75279 51.2253 7.99605 51.2253 13.2116V25.0514H17.0885V13.2116ZM13.7352 32.8339V28.6598H17.1405V37.0089C14.929 36.4698 13.7352 34.7216 13.7352 32.8339ZM20.7238 38.4213V28.6547H47.5901V39.0365C47.5901 46.3155 41.7013 52.2374 34.4628 52.2374C26.887 52.2374 20.7238 46.0395 20.7238 38.4213ZM34.4628 55.8408C36.9758 55.8408 39.3591 55.2766 41.4993 54.2731C41.4993 58.5881 41.4853 58.4657 41.5253 58.7095L34.3716 65.6445L27.1925 59.053C27.3541 58.6248 27.3103 58.814 27.3103 54.2802C29.4924 55.2794 31.9129 55.8408 34.4628 55.8408ZM15.7648 79.8476C16.9216 79.8476 17.8627 80.794 17.8627 81.9572C17.8627 83.1205 16.9216 84.0669 15.7648 84.0669C14.608 84.0669 13.667 83.1205 13.667 81.9572C13.667 80.794 14.608 79.8476 15.7648 79.8476ZM28.892 71.8462C26.3474 74.4855 24.888 78.171 24.888 81.9576V96.3949H5.76289C5.02193 96.3949 4.41918 95.7887 4.41918 95.0436V82.0215C4.41918 74.6821 8.23341 68.2221 13.9731 64.5403V76.537C11.7162 77.2935 10.0837 79.4366 10.0837 81.9572C10.0837 85.1074 12.6323 87.6703 15.7648 87.6703C18.8972 87.6703 21.4459 85.1074 21.4459 81.9572C21.4459 79.4366 19.8135 77.2935 17.5564 76.537V62.7104C19.6715 61.8806 21.955 61.3918 24.3401 61.3134L32.1413 68.4761L28.892 71.8462Z" fill="#FF8B01"/>
<path d="M29.6569 16.2037H32.3643V18.9264C32.3643 19.9214 33.1664 20.728 34.1559 20.728C35.1454 20.728 35.9475 19.9214 35.9475 18.9264V16.2037H38.655C39.6445 16.2037 40.4466 15.3971 40.4466 14.402C40.4466 13.4069 39.6445 12.6003 38.655 12.6003H35.9475V9.87779C35.9475 8.8827 35.1454 8.0761 34.1559 8.0761C33.1664 8.0761 32.3643 8.8827 32.3643 9.87779V12.6003H29.6569C28.6673 12.6003 27.8652 13.4069 27.8652 14.402C27.8652 15.3971 28.6673 16.2037 29.6569 16.2037ZM96.2388 0.149414H68.8206C66.1038 0.149414 63.8936 2.37205 63.8936 5.10405V57.7953C63.8936 60.5273 66.1038 62.75 68.8206 62.75H96.2388C98.9555 62.75 101.166 60.5273 101.166 57.7953V5.10405C101.166 2.37205 98.9555 0.149414 96.2388 0.149414ZM68.8206 3.75279H96.2388C96.9797 3.75279 97.5825 4.35892 97.5825 5.10405V47.7574H67.4768V5.10405C67.4768 4.35892 68.0796 3.75279 68.8206 3.75279ZM96.2388 59.1466H68.8206C68.0796 59.1466 67.4768 58.5405 67.4768 57.7953V51.3608H97.5825V57.7953C97.5825 58.5405 96.9797 59.1466 96.2388 59.1466Z" fill="#FF8B01"/>
<path d="M75.9861 32.3814V35.9016C75.9861 36.5938 76.3806 37.2248 77.0008 37.525C77.621 37.8253 78.3576 37.7415 78.8955 37.3096L84.9878 32.4189H88.463C91.1797 32.4189 93.3899 30.1962 93.3899 27.4642V20.9573C93.3899 18.2253 91.1797 16.0027 88.463 16.0027H76.5935C73.8767 16.0027 71.6665 18.2253 71.6665 20.9573V27.4642C71.6665 29.9895 73.5549 32.0795 75.9861 32.3814ZM75.2498 20.9573C75.2498 20.2122 75.8525 19.6061 76.5935 19.6061H88.463C89.2039 19.6061 89.8067 20.2122 89.8067 20.9573V27.4642C89.8067 28.2094 89.2039 28.8155 88.463 28.8155H84.3603C83.9541 28.8155 83.5599 28.9543 83.2425 29.2092L79.5694 32.1579V30.6172C79.5694 29.6221 78.7673 28.8155 77.7778 28.8155H76.5935C75.8525 28.8155 75.2498 28.2094 75.2498 27.4642V20.9573ZM82.5282 52.9212C81.3419 52.9212 80.3767 53.8917 80.3767 55.0848C80.3767 56.2778 81.3419 57.2483 82.5282 57.2483C83.7146 57.2483 84.6798 56.2778 84.6798 55.0848C84.6798 53.8917 83.7146 52.9212 82.5282 52.9212ZM28.4531 43.8715C31.5269 45.5491 35.0625 45.7402 38.9804 43.7901C39.8672 43.3487 40.2303 42.268 39.7913 41.3762C39.3522 40.4842 38.2776 40.1191 37.3908 40.5607C34.9276 41.787 32.5778 42.0227 30.162 40.7045C29.2927 40.2298 28.205 40.5542 27.7329 41.4287C27.2609 42.3033 27.5834 43.397 28.4531 43.8715Z" fill="#D8A353"/>
</svg>
