<svg width="33" height="30" viewBox="0 0 33 30" fill="none" xmlns="http://www.w3.org/2000/svg">
<path d="M27.9083 11.295C27.1283 10.29 25.7933 9.8925 24.5933 10.29L19.3508 12.0375C19.0808 12.1275 18.8858 12.3675 18.8483 12.645C18.8408 12.6825 18.8408 12.705 18.8333 12.7425C18.6983 12.6675 18.5783 12.5925 18.4658 12.5325V0.75C18.4658 0.3375 18.1283 0 17.7158 0H15.4658C15.0533 0 14.7158 0.3375 14.7158 0.75V12.525C14.5958 12.5925 14.4758 12.66 14.3483 12.735C14.3408 12.705 14.3408 12.6825 14.3333 12.645C14.2958 12.36 14.1008 12.1275 13.8308 12.0375L8.58832 10.29C7.38082 9.885 6.05332 10.29 5.27332 11.295L1.62832 15.975C1.11832 16.635 0.84082 17.4525 0.84082 18.2775V21.72C0.84082 22.9125 1.41832 24.0525 2.38582 24.75L9.39832 29.85C9.52582 29.9475 9.68332 30 9.84082 30C9.98332 30 11.2733 29.9625 12.5183 28.53C13.9958 26.835 15.4883 23.01 14.5433 14.3625C14.7008 14.2725 14.8508 14.1825 14.9933 14.0925C15.3233 14.6325 15.9158 15 16.5908 15C17.2658 15 17.8583 14.6325 18.1883 14.1C18.3308 14.1825 18.4808 14.2725 18.6383 14.37C17.6933 23.0175 19.1858 26.8425 20.6633 28.5375C21.9083 29.9625 23.1983 30 23.3408 30C23.4983 30 23.6558 29.9475 23.7833 29.8575L30.7958 24.7575C31.7633 24.0525 32.3408 22.92 32.3408 21.7275V18.285C32.3408 17.4525 32.0633 16.635 31.5533 15.9825L27.9083 11.295ZM11.4458 27.4725C10.8683 28.1625 10.3133 28.3875 10.0283 28.4625L3.26332 23.5425C2.68582 23.1225 2.34082 22.44 2.34082 21.72V18.2775C2.34082 17.7825 2.50582 17.2875 2.81332 16.8975L6.45082 12.2175C6.74332 11.8425 7.17832 11.64 7.63582 11.64C7.79332 11.64 7.95082 11.6625 8.10832 11.715L12.9008 13.3125C12.9158 13.4025 12.9233 13.4925 12.9308 13.5825C11.1833 14.6475 10.0208 15.4425 9.25582 16.035L9.03082 15.4725C8.88082 15.09 8.43832 14.9025 8.05582 15.0525C7.67332 15.2025 7.48582 15.645 7.63582 16.0275L8.06332 17.0925C7.80832 17.3775 7.71832 17.55 7.66582 17.6625C6.95332 19.0875 6.27832 20.4375 5.00332 21.075C4.63582 21.2625 4.48582 21.7125 4.66582 22.08C4.80082 22.35 5.06332 22.5 5.34082 22.5C5.45332 22.5 5.56582 22.4775 5.67832 22.4175C5.99332 22.26 6.27082 22.065 6.53332 21.8625L6.90082 22.7775C7.01332 23.07 7.29082 23.25 7.59082 23.25C7.68082 23.25 7.77832 23.235 7.86832 23.1975C8.25082 23.04 8.43832 22.605 8.28832 22.2225L7.67332 20.685C8.20582 19.9575 8.61832 19.14 9.01582 18.3375C9.06832 18.2325 9.37582 17.7675 11.0258 16.6125L11.4008 17.535C11.5133 17.82 11.7908 18 12.0908 18C12.1808 18 12.2783 17.985 12.3683 17.9475C12.7508 17.79 12.9383 17.355 12.7883 16.9725L12.3008 15.75C12.5558 15.585 12.8333 15.4125 13.1258 15.225C13.8833 23.1375 12.4433 26.28 11.4458 27.4725ZM16.9658 13.125C16.9658 13.335 16.8008 13.5 16.5908 13.5C16.3808 13.5 16.2158 13.335 16.2158 13.125V12.75H16.9658V13.125ZM16.9658 11.25H16.2158V10.5H16.9658V11.25ZM16.9658 9H16.2158V8.25H16.9658V9ZM16.9658 6.75H16.2158V6H16.9658V6.75ZM16.9658 4.5H16.2158V3.75H16.9658V4.5ZM16.9658 2.25H16.2158V1.5H16.9658V2.25ZM30.8408 21.72C30.8408 22.44 30.4958 23.115 29.9108 23.5425L23.1458 28.4625C22.8533 28.3875 22.3058 28.155 21.7283 27.4725C20.7308 26.28 19.2908 23.1375 20.0558 15.2325C20.3558 15.42 20.6258 15.5925 20.8808 15.7575L20.3933 16.9725C20.2358 17.355 20.4233 17.79 20.8133 17.9475C20.9033 17.985 21.0008 18 21.0908 18C21.3908 18 21.6683 17.82 21.7883 17.5275L22.1633 16.605C23.8133 17.76 24.1208 18.225 24.1733 18.3375C24.5783 19.14 24.9833 19.9575 25.5158 20.685L24.9008 22.2225C24.7433 22.605 24.9308 23.04 25.3208 23.1975C25.4033 23.235 25.5008 23.25 25.5908 23.25C25.8908 23.25 26.1683 23.07 26.2883 22.7775L26.6558 21.8625C26.9183 22.065 27.1958 22.26 27.5108 22.4175C27.6158 22.4775 27.7283 22.5 27.8408 22.5C28.1183 22.5 28.3808 22.35 28.5158 22.0875C28.7033 21.72 28.5533 21.27 28.1783 21.0825C26.9033 20.445 26.2283 19.095 25.5158 17.67C25.4558 17.5575 25.3733 17.3775 25.1183 17.1L25.5458 16.035C25.6958 15.6525 25.5158 15.2175 25.1258 15.06C24.7358 14.9025 24.3083 15.09 24.1508 15.48L23.9258 16.0425C23.1608 15.45 21.9983 14.655 20.2508 13.59C20.2658 13.5 20.2733 13.4175 20.2808 13.32L25.0733 11.7225C25.6733 11.52 26.3408 11.7225 26.7308 12.225L30.3683 16.905C30.6758 17.295 30.8408 17.79 30.8408 18.285V21.72Z" fill="#064D99"/>
</svg>
