<svg width="49" height="40" viewBox="0 0 49 40" fill="none" xmlns="http://www.w3.org/2000/svg">
<path fill-rule="evenodd" clip-rule="evenodd" d="M24.5012 40C27.7681 39.999 30.6974 39.3848 33.6406 37.8608C38.0208 35.6159 41.2923 32.0304 43.752 27.7961L44.7221 26.059C45.7789 24.007 46.64 21.8486 47.3488 19.6517C47.5618 18.9913 48.4616 16.0226 48.1495 15.4385C48.0976 15.3416 47.9983 15.2417 47.9092 15.1522C47.8778 15.1206 47.8477 15.0902 47.8213 15.0618L45.2823 12.1717L42.3866 7.93413C40.4718 5.14789 37.3924 1.05288 34.0055 0.208451C31.4691 -0.42393 28.7322 0.462408 26.5496 1.7927L24.5094 3.14371C21.9566 1.35451 19.5724 -0.114807 16.3769 0.0135889C13.2028 0.256069 11.1015 2.35762 9.11494 4.67979C8.2632 5.67545 7.48244 6.72192 6.74645 7.80618L3.91753 11.9522C3.39085 12.6489 2.84481 13.3348 2.25207 13.9765L1.42233 14.8361C0.620075 15.6644 0.712042 16.0144 0.962989 16.9693C1.00039 17.1116 1.04132 17.2673 1.08335 17.4401L1.75982 19.9062L2.79469 22.7037C5.972 30.5559 11.5165 37.6886 20.1431 39.5612C21.6496 39.8882 22.9727 40.0005 24.5012 40ZM26.6185 3.48048C28.279 2.45604 29.9983 1.59386 31.9668 1.4635L32.0684 1.46088C35.9786 1.38922 39.2554 5.95484 41.2308 8.86911L43.6507 12.4705C44.5578 13.7403 45.614 14.97 46.7333 16.0547C46.4459 17.432 46.0842 18.7871 45.6283 20.1183L44.9215 21.9773C41.3208 31.0509 34.6553 38.5352 24.4212 38.5426C21.4568 38.5447 18.5972 37.8294 15.9499 36.4754L13.4875 34.9692C11.7136 33.68 10.2253 32.1938 8.87413 30.4686L7.81613 29.0613C5.40829 25.585 2.98916 20.1564 2.32124 15.9909C3.16412 15.3986 4.6443 13.5273 5.24027 12.7028L7.45009 9.40329C8.41201 7.98343 9.40571 6.57535 10.5349 5.28344C14.5896 0.644744 17.7348 0.292202 22.8869 3.79464L23.5513 4.25986C24.5085 4.93185 24.7697 4.74557 25.6294 4.13269C25.6483 4.11924 25.6674 4.10558 25.6869 4.09172L26.6185 3.48048ZM22.9916 31.9407L25.2745 31.9402C25.4595 31.9401 25.6458 31.9423 25.8326 31.9444C26.3078 31.9499 26.7863 31.9554 27.2555 31.9244C35.0979 31.4063 41.7336 26.0724 44.6567 18.8846C44.6649 18.8645 44.6731 18.8442 44.6814 18.8237C44.9213 18.2348 45.2213 17.4983 45.2125 16.862C45.2083 16.5532 44.4888 16.2643 44.1866 16.143C44.1605 16.1325 44.1375 16.1233 44.1183 16.1154L42.5554 15.5295C38.2334 14.0051 33.706 13.1731 29.1475 12.8113L27.2191 12.662L23.8357 12.6502L21.9752 12.6557L16.1186 13.19C12.9616 13.6315 9.33214 14.5033 6.34062 15.5854L4.97138 16.0986C4.00364 16.4896 3.66214 16.6768 4.01045 17.7917L4.39089 18.8348C7.21488 25.9427 13.797 31.2882 21.4512 31.9124C21.8585 31.9456 22.2706 31.9436 22.6805 31.9417C22.7844 31.9412 22.8881 31.9407 22.9916 31.9407ZM21.1628 14.1701L23.3137 14.1147L23.7933 14.1143L23.7931 17.7521C23.7813 17.8692 23.5988 18.0066 23.4989 18.0817C23.4946 18.085 23.4904 18.0881 23.4865 18.0911C22.943 18.5012 22.035 18.4792 21.3755 18.3782C21.2044 18.331 21.0809 18.2288 20.976 18.0883L20.952 18.0559C20.7659 17.8202 20.7937 17.1776 20.8127 16.7374C20.8176 16.6225 20.822 16.5213 20.8218 16.4448L20.8229 14.1868C20.8876 14.1601 20.992 14.1643 21.0806 14.1679C21.1105 14.1691 21.1386 14.1703 21.1628 14.1701ZM25.2633 16.4236L25.2659 14.1154L26.8066 14.161C26.9412 14.1637 27.0778 14.1633 27.215 14.1629C27.5582 14.1618 27.9059 14.1607 28.2395 14.208L28.2469 17.5091C28.2331 17.7038 28.013 17.9035 27.8695 18.0336C27.8618 18.0405 27.8544 18.0473 27.8471 18.0539C27.1507 18.6163 25.4048 18.6866 25.285 17.6368C25.2515 17.3439 25.256 17.0386 25.2604 16.7381C25.2619 16.6324 25.2635 16.5273 25.2633 16.4236ZM16.3881 14.6236L19.0668 14.3518L19.3383 14.3319V17.4956C19.3382 17.5136 19.3387 17.5328 19.3392 17.5527C19.3412 17.6286 19.3434 17.7138 19.3126 17.7765C18.9361 18.543 17.5372 18.5984 16.8913 18.2664C16.3796 17.8797 16.3786 17.2294 16.3776 16.6385C16.3776 16.6157 16.3776 16.5929 16.3775 16.5703L16.3752 14.9402C16.3752 14.9155 16.3744 14.8896 16.3735 14.8631C16.371 14.7822 16.3682 14.6959 16.3881 14.6236ZM29.7181 17.546L29.7141 14.3508L32.664 14.6492L32.6672 16.7815C32.6684 16.9016 32.6747 17.0056 32.6803 17.099C32.7023 17.4613 32.7146 17.6647 32.3772 18.0305C31.8455 18.4913 31.0052 18.5556 30.3522 18.3173C29.8057 18.1179 29.7401 18.0401 29.7181 17.546ZM12.4427 15.3676L14.8773 14.8641L14.9059 17.3778C14.9059 17.391 14.906 17.4048 14.9062 17.4191C14.9072 17.5059 14.9084 17.6091 14.8654 17.6794L14.7834 17.8038C14.2477 18.5421 13.096 18.6803 12.3739 18.1393L12.3015 18.0684C11.9263 17.6919 11.9274 17.2773 11.9288 16.7924C11.929 16.7538 11.9291 16.7149 11.929 16.6755V15.4756C12.0223 15.4347 12.1447 15.4164 12.262 15.3989C12.3256 15.3894 12.3876 15.3801 12.4427 15.3676ZM34.1468 15.9857L34.1443 14.8419L36.2383 15.2926C36.3397 15.3137 36.4455 15.3306 36.5522 15.3476C36.7466 15.3785 36.9436 15.4099 37.1213 15.4682L37.1229 16.6301C37.1229 16.6541 37.1229 16.6778 37.1229 16.7013C37.1233 17.2323 37.1236 17.643 36.7449 18.06C36.5474 18.2508 36.2994 18.3896 36.0265 18.4302L35.775 18.4562C34.2235 18.4968 34.15 17.2486 34.1468 15.9857ZM38.6077 15.8904L38.5752 15.8548L42.8679 17.2419C42.8538 17.2821 41.964 17.873 41.493 18.1859C41.3684 18.2686 41.2731 18.3319 41.2311 18.3604L39.01 19.8802C37.83 20.6484 36.6092 21.3336 35.2951 21.8441C34.1067 22.3057 32.8109 22.6259 31.5029 22.949C29.0056 23.5661 26.4638 24.1942 24.5402 25.8384C23.2212 24.9683 22.1462 24.3124 20.6261 23.7725C19.5438 23.3881 18.4272 23.1219 17.3101 22.8555C16.0728 22.5604 14.8347 22.2651 13.6416 21.809C12.0711 21.2086 10.6041 20.2664 9.21612 19.3262L6.17944 17.2498L9.04973 16.2672C9.1372 16.2411 9.22555 16.2133 9.31449 16.1854C9.58439 16.1007 9.85967 16.0143 10.132 15.966L10.4362 15.8972C10.4462 16.1315 10.4388 16.3618 10.4315 16.5895C10.413 17.1679 10.395 17.7292 10.6625 18.2954C11.2486 19.5359 12.5997 20.0844 13.9075 19.8573C14.3781 19.7757 14.772 19.5847 15.1864 19.3837C15.2495 19.3531 15.3132 19.3223 15.3776 19.2915C15.4127 19.2748 15.4437 19.2588 15.472 19.2441C15.6182 19.1686 15.691 19.131 15.8673 19.2302C16.0778 19.3486 16.2326 19.4481 16.3615 19.531C16.7935 19.8087 16.9341 19.899 17.9049 19.8893C18.3898 19.8844 18.7739 19.8393 19.2256 19.6337L19.8457 19.328C20.2239 19.1567 20.4294 19.3023 20.6869 19.4846C20.816 19.576 20.9581 19.6767 21.1417 19.7513C21.8364 20.0336 22.8607 19.9742 23.5356 19.7013C23.6188 19.6677 23.7539 19.5905 23.9009 19.5066C24.1475 19.3658 24.4274 19.206 24.5507 19.2011C24.6988 19.1952 24.8644 19.3022 25.0745 19.438C25.6405 19.8038 26.5299 20.3785 28.274 19.5194C29.0159 19.1539 29.0305 19.1636 29.3583 19.3823C29.4622 19.4516 29.5975 19.5418 29.7972 19.6477C30.3832 19.9584 31.0072 19.9198 31.6515 19.8799L31.6747 19.8785C32.09 19.8529 32.4478 19.6669 32.806 19.4807C33.0104 19.3745 33.2149 19.2682 33.4304 19.1915C33.6449 19.1153 33.8937 19.2736 34.184 19.4583C34.4506 19.628 34.7523 19.82 35.0946 19.8729C35.9322 20.0022 36.7953 19.8801 37.4865 19.3623C38.6271 18.5078 38.6409 17.8647 38.6178 16.5945C38.6166 16.525 38.6115 16.4503 38.6063 16.3737C38.5951 16.2092 38.5834 16.0363 38.6077 15.8904ZM6.49421 19.8863L6.01951 18.8887C6.53914 19.2972 7.09677 19.6696 7.64974 20.0388C7.79761 20.1376 7.94514 20.2361 8.09152 20.335C11.5568 22.6768 13.1639 23.3866 17.1526 24.3436L19.1219 24.8382C20.7191 25.3068 22.5483 26.0233 23.7762 27.1796L23.7822 30.4748C23.6945 30.476 23.6064 30.4774 23.518 30.4787C22.8943 30.4884 22.2588 30.4982 21.6407 30.4588C15.1493 30.0451 9.42107 25.566 6.49421 19.8863ZM39.3315 21.48L42.9775 18.9796L43.0217 18.984C42.9657 19.1718 42.8558 19.3691 42.7507 19.5579C42.7042 19.6414 42.6586 19.7232 42.6191 19.8018C39.8073 25.3914 34.3429 29.6763 28.0646 30.3752C27.1916 30.4723 26.3269 30.4713 25.4303 30.4703C25.3767 30.4702 25.323 30.4701 25.2691 30.4701L25.2631 27.1567C25.3109 27.0864 25.3551 27.0594 25.4087 27.0267C25.4323 27.0123 25.4577 26.9967 25.4861 26.9759L25.907 26.6643C27.7664 25.3487 29.9399 24.8216 32.1107 24.2952C32.7268 24.1458 33.3427 23.9965 33.9511 23.8292C35.8328 23.3117 37.6848 22.5373 39.3315 21.48Z" fill="#064D99"/>
</svg>
