<svg width="30" height="30" viewBox="0 0 30 30" fill="none" xmlns="http://www.w3.org/2000/svg">
<path fill-rule="evenodd" clip-rule="evenodd" d="M8.77461 5.01643C13.0485 5.01643 13.235 10.1116 13.216 13.1553C13.2658 13.1337 13.3159 13.1093 13.3654 13.082C13.5732 12.9675 13.7677 12.8042 13.9135 12.5632C14.0585 12.3238 14.1836 11.9613 14.1836 11.4034L14.1835 0.000399486C14.1835 0.000399486 14.1835 0 15.0163 0C15.849 0 15.849 9.96729e-05 15.849 9.96729e-05L15.8491 11.4014C15.8491 11.9592 15.9743 12.3218 16.1192 12.5612C16.265 12.8022 16.4595 12.9655 16.6673 13.08C16.706 13.1013 16.745 13.1208 16.7838 13.1386C16.7649 10.0946 16.9528 5.00286 21.2253 5.00286C27.43 5.00286 31.862 26.6607 29.2028 28.8707C26.5436 31.0806 21.2253 29.7547 18.566 27.1027C16.4191 24.9616 16.6049 19.9584 16.7382 16.3671C16.7578 15.8398 16.7763 15.3431 16.786 14.8902C16.5184 14.8272 16.1939 14.7207 15.8638 14.5389C15.5746 14.3796 15.2789 14.161 15.0173 13.864C14.7552 14.1621 14.4588 14.3813 14.169 14.5409C13.8252 14.7303 13.4873 14.8379 13.2138 14.8998C13.2235 15.3536 13.242 15.8516 13.2616 16.3802C13.395 19.9717 13.5807 24.9752 11.4339 27.1162C8.77461 29.7682 3.45628 31.0942 0.797049 28.8842C-1.86216 26.6743 2.56985 5.01643 8.77461 5.01643ZM23.379 9.15838C23.379 10.0775 22.6333 10.8226 21.7134 10.8226C20.7936 10.8226 20.0479 10.0775 20.0479 9.15838C20.0479 8.23915 20.7936 7.49405 21.7134 7.49405C22.6333 7.49405 23.379 8.23915 23.379 9.15838ZM6.6899 9.16229C6.69073 10.0822 7.43699 10.8273 8.35688 10.8265C9.27678 10.8258 10.0219 10.0794 10.021 9.15954C10.0203 8.23973 9.27403 7.49464 8.35414 7.49539C7.43424 7.49614 6.68915 8.24239 6.6899 9.16229ZM2.51504 25.818C2.51579 26.7379 3.2621 27.483 4.18196 27.4822C5.10186 27.4814 5.84695 26.7351 5.8462 25.8153C5.84545 24.8954 5.09911 24.1503 4.17922 24.1511C3.25937 24.1518 2.51429 24.8981 2.51504 25.818ZM9.18967 23.3183C8.26978 23.3191 7.52343 22.574 7.52268 21.6541C7.52193 20.7342 8.26703 19.9879 9.18692 19.9872C10.1068 19.9863 10.8531 20.7314 10.8538 21.6513C10.8546 22.5712 10.1095 23.3175 9.18967 23.3183ZM3.35876 18.3229C3.35951 19.2428 4.10585 19.9879 5.02574 19.9872C5.94555 19.9863 6.69065 19.2401 6.6899 18.3202C6.68915 17.4003 5.94289 16.6552 5.02299 16.656C4.1031 16.6568 3.35801 17.403 3.35876 18.3229ZM9.18967 15.8232C8.26978 15.824 7.52343 15.0789 7.52268 14.159C7.52193 13.2391 8.26703 12.4928 9.18692 12.4921C10.1068 12.4913 10.8531 13.2364 10.8538 14.1563C10.8546 15.0761 10.1095 15.8224 9.18967 15.8232ZM25.8638 27.4783C26.7837 27.4783 27.5294 26.7332 27.5294 25.8141C27.5294 24.8949 26.7837 24.1498 25.8638 24.1498C24.9439 24.1498 24.1982 24.8949 24.1982 25.8141C24.1982 26.7332 24.9439 27.4783 25.8638 27.4783ZM22.5361 21.6502C22.5361 22.5693 21.7904 23.3144 20.8705 23.3144C19.9507 23.3144 19.2049 22.5693 19.2049 21.6502C19.2049 20.7309 19.9507 19.9858 20.8705 19.9858C21.7904 19.9858 22.5361 20.7309 22.5361 21.6502ZM25.0372 19.9833C25.9571 19.9833 26.7027 19.2382 26.7027 18.319C26.7027 17.3998 25.9571 16.6547 25.0372 16.6547C24.1174 16.6547 23.3716 17.3998 23.3716 18.319C23.3716 19.2382 24.1174 19.9833 25.0372 19.9833ZM22.5422 14.1551C22.5422 15.0742 21.7965 15.8193 20.8767 15.8193C19.9568 15.8193 19.2111 15.0742 19.2111 14.1551C19.2111 13.2359 19.9568 12.4908 20.8767 12.4908C21.7965 12.4908 22.5422 13.2359 22.5422 14.1551Z" fill="#064D99"/>
</svg>
