<svg width="40" height="41" viewBox="0 0 40 41" fill="none" xmlns="http://www.w3.org/2000/svg">
<path fill-rule="evenodd" clip-rule="evenodd" d="M40 20.8994C40 31.8994 31 40.8994 20 40.8994C9 40.8994 0 31.8994 0 20.8994C0 9.89941 9 0.899414 20 0.899414C31 0.899414 40 9.89941 40 20.8994ZM38.3333 20.8994C38.3333 10.8161 30.0833 2.56608 20 2.56608C9.91667 2.56608 1.66667 10.8161 1.66667 20.8994C1.66667 30.9827 9.91667 39.2327 20 39.2327C30.0833 39.2327 38.3333 30.9827 38.3333 20.8994ZM11.2501 24.8161C12.6668 24.8161 13.7501 25.9827 13.7501 27.3161C13.7501 28.6494 12.6668 29.7327 11.3335 29.8161H6.41679C5.00012 29.8161 3.91679 28.7327 3.91679 27.3161C3.91679 25.8994 5.08346 24.8161 6.41679 24.8161H11.2501ZM6.41679 26.4827C5.91679 26.4827 5.58346 26.8994 5.58346 27.3161C5.58346 27.7327 6.00012 28.0661 6.41679 28.1494H11.3335C11.8335 28.1494 12.1668 27.8161 12.1668 27.3161C12.1668 26.8161 11.7501 26.4827 11.3335 26.4827H6.41679ZM17.5835 29.8161C16.1668 29.8161 15.0835 28.6494 15.0835 27.3161C15.0835 25.8994 16.1668 24.8161 17.5835 24.8161H22.5001C23.9168 24.8161 25.0001 25.8994 25.0001 27.3161C25.0001 28.7327 23.8335 29.8161 22.5001 29.8161H17.5835ZM22.4168 28.1494C22.9168 28.1494 23.2501 27.7327 23.2501 27.3161C23.2501 26.8161 22.9168 26.4827 22.4168 26.4827H17.5001C17.0001 26.4827 16.6668 26.8161 16.6668 27.3161C16.6668 27.8161 17.0835 28.1494 17.5001 28.1494H22.4168ZM26.1668 27.3161C26.1668 25.8994 27.3335 24.8161 28.6668 24.8161H33.5835C35.0001 24.8161 36.0835 25.8994 36.0835 27.3161C36.0835 28.7327 34.9168 29.8161 33.5835 29.8161H28.6668C27.2501 29.8161 26.1668 28.7327 26.1668 27.3161ZM33.5835 28.1494C34.0835 28.1494 34.4168 27.7327 34.4168 27.3161C34.4168 26.8161 34.0001 26.4827 33.5835 26.4827H28.6668C28.1668 26.4827 27.8335 26.8161 27.8335 27.3161C27.8335 27.8161 28.2501 28.1494 28.6668 28.1494H33.5835ZM12.0001 30.3994H16.9168C18.2501 30.3994 19.4168 31.4827 19.4168 32.8994C19.4168 34.3161 18.2501 35.3994 16.9168 35.3994H12.0001C10.5835 35.3994 9.50012 34.3161 9.50012 32.8994C9.50012 31.4827 10.6668 30.3994 12.0001 30.3994ZM12.0001 33.7327H16.9168C17.3335 33.7327 17.7501 33.3994 17.7501 32.8994C17.7501 32.3994 17.3335 32.0661 16.9168 32.0661H12.0001C11.5001 32.0661 11.1668 32.3994 11.1668 32.8994C11.1668 33.3994 11.5835 33.7327 12.0001 33.7327ZM23.0835 30.3994H28.0001C29.3335 30.3994 30.5001 31.4827 30.5001 32.8994C30.5001 34.3161 29.3335 35.3994 28.0001 35.3994H23.0835C21.6668 35.3994 20.5835 34.3161 20.5835 32.8994C20.5835 31.4827 21.7501 30.3994 23.0835 30.3994ZM23.0835 33.7327H28.0001C28.4168 33.7327 28.8335 33.3994 28.8335 32.8994C28.8335 32.3994 28.4168 32.0661 28.0001 32.0661H23.0835C22.5835 32.0661 22.2501 32.3994 22.2501 32.8994C22.2501 33.3994 22.6668 33.7327 23.0835 33.7327ZM3.33452 21.1942C3.23523 21.1658 3.17793 21.1494 3.16679 21.1494C2.75012 21.0661 2.50012 20.5661 2.66679 20.0661C2.83346 19.6494 3.33346 19.3994 3.75012 19.5661C4.16679 19.7327 14.5001 23.2327 20.8335 15.0661C21.0835 14.6494 21.6668 14.6494 22.0001 14.8994C22.4168 15.1494 22.4168 15.7327 22.1668 16.0661C18.4168 20.8994 13.3335 22.0661 9.41679 22.0661C6.38466 22.0661 3.97796 21.3781 3.33452 21.1942ZM34.2501 13.0661C34.2501 16.0661 31.7501 18.5661 28.7501 18.5661C25.7501 18.5661 23.2501 16.0661 23.2501 13.0661C23.2501 10.0661 25.6668 7.56608 28.7501 7.56608C31.8335 7.56608 34.2501 10.0661 34.2501 13.0661ZM32.5835 13.0661C32.5835 10.9827 30.8335 9.23275 28.7501 9.23275C26.6668 9.23275 24.9168 10.9827 24.9168 13.0661C24.9168 15.1494 26.6668 16.8994 28.7501 16.8994C30.8335 16.8994 32.5835 15.1494 32.5835 13.0661ZM16.0835 12.8161C16.0835 14.5661 14.6668 15.9827 12.9168 15.9827C11.1668 15.9827 9.75012 14.5661 9.75012 12.8161C9.75012 11.0661 11.1668 9.64941 12.9168 9.64941C14.6668 9.64941 16.0835 11.0661 16.0835 12.8161ZM14.4168 12.8161C14.4168 11.9827 13.7501 11.3161 12.9168 11.3161C12.1668 11.3161 11.4168 11.9827 11.4168 12.8161C11.4168 13.6494 12.0835 14.3161 12.9168 14.3161C13.7501 14.3161 14.4168 13.6494 14.4168 12.8161Z" fill="#064D99"/>
</svg>
