<svg width="206" height="172" viewBox="0 0 206 172" fill="none" xmlns="http://www.w3.org/2000/svg">
<path fill-rule="evenodd" clip-rule="evenodd" d="M147.371 57.3679C151.602 59.3616 154.469 61.82 156.046 66.3657L161.428 87.0709C148.72 104.759 127.928 116.275 104.525 116.275C81.1218 116.275 60.4017 104.797 47.6863 87.1646L53.2176 66.3657C54.7204 62.0373 57.3062 59.5977 61.3311 57.6452C64.4968 56.1124 67.8226 54.8619 71.1462 53.6122C73.9249 52.5674 76.7021 51.5232 79.3829 50.3151C77.6103 55.4155 76.4936 60.7669 76.0214 66.1634C75.5567 71.4699 75.3019 77.6945 75.448 83.0048C75.4583 83.4163 75.5383 83.8387 75.6198 84.2684C75.7468 84.9383 75.8771 85.6259 75.7516 86.3176C73.0046 87.1196 69.9429 88.5324 69.1971 91.6016C67.0198 100.596 79.8926 103.687 83.2766 96.1437C85.2478 91.7478 82.3285 87.633 77.9664 86.6099C78.0261 84.3358 78.0272 81.961 78.0284 79.532C78.0329 69.929 78.0378 59.479 81.6689 51.0533C83.5052 46.7961 87.2415 43.7082 91.1877 41.4559C91.2655 40.9412 90.8539 40.5594 90.4531 40.1877C90.2557 40.0045 90.0608 39.8238 89.9285 39.6308C88.3808 37.3748 86.7318 34.2531 85.8249 31.6711C85.6188 31.0827 84.6445 27.8149 84.6969 27.4963C84.7156 27.3788 84.8708 27.3031 85.0473 27.2169C85.2255 27.1299 85.4254 27.0323 85.5289 26.8705C85.9948 26.1423 85.9193 23.2273 85.8583 20.8715C85.8295 19.76 85.8039 18.7729 85.8399 18.1987C86.0123 15.4555 86.7281 11.232 87.4251 8.56003C87.9569 6.51888 88.9662 4.86448 89.9985 3.17244C90.4938 2.36058 90.9943 1.54005 91.45 0.663973C92.9644 2.98479 94.7969 2.58392 96.8117 2.14317C97.4842 1.99606 98.177 1.8445 98.8851 1.78823C108.887 0.990008 122.228 9.87541 123.143 20.1624C123.2 20.8164 123.154 21.5956 123.106 22.4031C122.989 24.3903 122.861 26.549 124.241 27.4364C122.941 32.4618 120.917 37.3598 117.537 41.3322C125.26 44.7575 129.694 52.0052 129.607 60.5046C123.982 63.0417 121.483 68.8953 123.162 74.8427C123.649 76.5746 124.62 78.1261 125.598 79.6883C126.408 80.9825 127.223 82.2841 127.771 83.7018C128.376 85.2695 128.734 86.9518 129.094 88.6405C129.726 91.6106 130.363 94.6004 132.351 97.0206C130.867 99.1117 128.551 99.0517 126.287 98.3659C124.336 97.7775 124.093 97.3182 123.614 96.4161C123.424 96.06 123.199 95.6349 122.817 95.1056C118.548 89.1957 114.07 96.4585 118.871 98.2086C119.683 98.5037 120.42 98.5089 121.142 98.5139C121.649 98.5175 122.149 98.521 122.663 98.6245C123.059 98.7052 123.597 98.9719 124.152 99.2472C124.655 99.4961 125.171 99.752 125.609 99.8837C128.551 100.776 131.219 100.798 133.381 98.3472C136.578 100.753 139.276 99.6139 142.416 98.0549C142.662 97.9339 142.872 97.7462 143.081 97.5592C143.331 97.335 143.581 97.1118 143.889 97.0056C144.424 96.8218 144.969 96.7399 145.526 96.6563C146.365 96.5302 147.229 96.4003 148.124 95.9113C152.291 93.6366 147.978 88.0265 144.631 92.1338C144.072 92.8225 143.77 93.7126 143.518 94.4531C143.339 94.982 143.185 95.4345 142.982 95.6827C142.769 95.945 140.535 97.2229 140.082 97.4028C138.185 98.1636 136.079 98.4934 134.685 96.702C136.224 93.9425 136.372 90.9093 136.519 87.8934C136.603 86.187 136.686 84.4862 137.02 82.8437C137.36 81.1735 137.989 79.9965 138.605 78.8435C139.095 77.9268 139.576 77.0253 139.898 75.9032C141.663 69.7535 139.422 63.8549 133.722 60.9168C133.532 60.8197 133.309 60.7765 133.088 60.7335C132.652 60.6487 132.22 60.5647 132.043 60.0699C132.003 59.7702 131.963 59.4702 131.923 59.1699C131.521 56.1543 131.118 53.12 129.877 50.3151C132.558 51.5217 135.334 52.5635 138.111 53.6056C141.242 54.7805 144.374 55.9558 147.371 57.3679ZM104.368 102.057C104.41 102.219 104.433 102.31 104.907 102.207C105.644 100.391 106.536 98.6041 107.432 96.8124C109.037 93.5988 110.651 90.3688 111.387 86.921L107.561 66.9991L110.502 61.7076L104.529 56.506L98.7652 61.7263L101.553 67.2764L97.6597 87.217C98.3137 88.6732 98.9488 90.2616 99.598 91.8854C100.987 95.3602 102.441 98.9971 104.285 101.847C104.333 101.923 104.352 101.995 104.368 102.057ZM104.514 56.2024C105.987 56.2961 115.573 49.5468 115.573 48.7711V43.5807C109.056 49.232 100.294 49.5393 93.691 43.8618V48.7711C93.691 49.5543 103.082 56.1087 104.514 56.2024ZM129.799 62.9967C132.759 62.3297 135.086 64.1247 136.559 66.4932C139.264 70.8324 138.058 74.2388 136.741 77.9584C136.171 79.5682 135.581 81.2366 135.277 83.0648C135.053 84.4211 135.01 85.8392 134.967 87.2622V87.2624C134.882 90.0268 134.798 92.8094 133.385 95.1918C131.802 92.9646 131.233 90.3309 130.666 87.7053C130.363 86.2972 130.059 84.8915 129.6 83.5519C129.037 81.9076 128.246 80.3726 127.473 78.8715C125.444 74.9331 123.535 71.2282 126.186 66.3957C126.819 65.2377 128.483 63.2928 129.799 62.9967ZM73.158 92.8683C75.6764 97.6726 84.3519 93.5766 80.2259 88.4649C80.728 88.0003 82.4219 90.5186 82.6093 90.9908C85.0452 97.0618 77.4977 101.72 72.5134 98.0024C67.904 94.5622 70.3361 87.9253 75.7363 87.3444C73.7951 88.7348 71.7602 90.2001 73.158 92.8683Z" fill="#064D99"/>
<path d="M197.829 135.463H205.812V160.871H197.829V158.218C195.907 160.433 193.4 161.553 190.309 161.577C187.024 161.577 184.541 160.555 182.886 158.535C181.232 156.515 180.404 153.765 180.404 150.284V135.488H188.362V148.678C188.362 152.353 189.871 154.203 192.913 154.227C194.447 154.227 195.639 153.667 196.515 152.523C197.391 151.38 197.829 149.822 197.829 147.851V135.463Z" fill="#FF8B01"/>
<path d="M174.758 153.692L176.68 160.044C174.588 160.871 172.519 161.285 170.45 161.285C167.457 161.285 165.218 160.433 163.709 158.729C162.2 157.026 161.446 154.689 161.446 151.696V142.424H157.503V135.463H161.446V127.481H169.428V135.463H176.267V142.424H169.428V151.696C169.428 153.473 170.304 154.349 172.056 154.349C173.03 154.349 173.93 154.13 174.758 153.692Z" fill="#FF8B01"/>
<path d="M143.509 161.577L143.484 161.601C139.323 161.601 135.964 160.36 133.384 157.878C130.805 155.395 129.515 152.183 129.515 148.216C129.515 144.322 130.756 141.109 133.238 138.578C135.721 136.047 138.958 134.782 142.973 134.782C147.062 134.782 150.299 136.023 152.684 138.505C155.069 140.988 156.261 144.127 156.261 147.924C156.261 148.922 156.188 149.798 156.067 150.552H137.278C137.887 153.473 140.004 154.933 143.63 154.933C146.064 154.933 147.768 154.081 148.717 152.353L155.896 154.446C155.093 156.271 153.609 157.926 151.418 159.387C149.228 160.847 146.599 161.577 143.509 161.577ZM137.303 145.782H148.498C148.376 144.59 147.816 143.567 146.794 142.716C145.772 141.864 144.482 141.45 142.925 141.45C141.367 141.45 140.077 141.888 139.079 142.74C138.082 143.592 137.497 144.614 137.303 145.782Z" fill="#FF8B01"/>
<path d="M112.26 161.577L112.284 161.723C108.171 161.723 104.691 160.701 101.844 158.656C98.9964 156.612 97.0251 154.105 95.9299 151.136L103.815 148.703C104.521 150.43 105.64 151.818 107.198 152.889C108.756 153.959 110.629 154.495 112.82 154.495C114.45 154.495 115.765 154.178 116.762 153.521C117.76 152.864 118.271 152.085 118.271 151.185C118.271 149.749 117.03 148.63 114.523 147.826L105.543 145.052C103.109 144.298 101.162 143.105 99.7022 141.499C98.2419 139.893 97.5362 137.994 97.5605 135.804C97.5362 132.908 98.753 130.45 101.211 128.43C103.669 126.41 106.76 125.388 110.483 125.388C114.158 125.388 117.42 126.264 120.243 128.04C123.066 129.817 124.964 131.983 125.913 134.538L118.296 136.777C117.59 135.536 116.543 134.538 115.156 133.76C113.769 132.981 112.236 132.591 110.556 132.591C109.169 132.591 108.05 132.859 107.198 133.395C106.346 133.93 105.932 134.611 105.932 135.439C105.932 136.631 106.711 137.459 108.269 137.921L117.054 140.72C120.097 141.669 122.457 142.862 124.112 144.298C125.767 145.733 126.595 147.802 126.595 150.504C126.595 153.667 125.28 156.296 122.628 158.413C119.975 160.53 116.519 161.577 112.26 161.577Z" fill="#FF8B01"/>
<path d="M84.6621 135.463H92.6447V160.871H84.6621V158.218C82.7395 160.433 80.2328 161.553 77.142 161.577C73.8565 161.577 71.3741 160.555 69.7192 158.535C68.0643 156.515 67.2368 153.765 67.2368 150.284V135.488H75.195V148.678C75.195 152.353 76.7039 154.203 79.746 154.227C81.2793 154.227 82.4718 153.667 83.3479 152.523C84.2241 151.38 84.6621 149.822 84.6621 147.851V135.463Z" fill="#064D99"/>
<path d="M56.4798 135.463H64.9977L49.8844 171.336H41.7802L46.3069 160.263L46.6476 160.214L46.3069 160.263L34.8928 135.463H43.6055L50.2495 150.942L56.4798 135.463Z" fill="#064D99"/>
<path d="M28.3462 160.871L25.9125 154.203H11.1642L8.70619 160.871H0.188232L13.0869 125.972H23.9655L36.8641 160.871H28.3462ZM13.7926 146.975H23.2597L18.5383 133.906L13.7926 146.975Z" fill="#064D99"/>
</svg>
